<svg width="18" height="18" viewBox="0 0 18 18" fill="none" xmlns="http://www.w3.org/2000/svg">
<path d="M16.905 6.60625L15.2513 6.055L16.03 4.4975C16.1089 4.33448 16.1353 4.15097 16.1056 3.9723C16.0758 3.79364 15.9913 3.62861 15.8638 3.5L14 1.63625C13.8707 1.50683 13.7041 1.42118 13.5236 1.39136C13.3431 1.36154 13.1578 1.38904 12.9938 1.47L11.4363 2.24875L10.885 0.595003C10.8268 0.422623 10.7163 0.272683 10.5689 0.166033C10.4214 0.0593929 10.2444 0.00135287 10.0625 2.87385e-06H7.4375C7.25406 -0.000467126 7.07512 0.0567229 6.92595 0.163493C6.77679 0.270263 6.66495 0.421213 6.60625 0.595003L6.055 2.24875L4.4975 1.47C4.33448 1.39106 4.15097 1.36466 3.9723 1.39443C3.79364 1.42421 3.62861 1.5087 3.5 1.63625L1.63625 3.5C1.50683 3.6293 1.42118 3.79591 1.39136 3.9764C1.36154 4.1569 1.38904 4.3422 1.47 4.50625L2.24875 6.06375L0.595003 6.615C0.422623 6.67322 0.272683 6.78373 0.166033 6.93115C0.0593929 7.07856 0.00135287 7.25556 2.87385e-06 7.4375V10.0625C-0.000467126 10.2459 0.0567229 10.4249 0.163493 10.5741C0.270263 10.7232 0.421213 10.8351 0.595003 10.8938L2.24875 11.445L1.47 13.0025C1.39106 13.1655 1.36466 13.349 1.39443 13.5277C1.42421 13.7064 1.5087 13.8714 1.63625 14L3.5 15.8638C3.6293 15.9932 3.79591 16.0788 3.9764 16.1086C4.1569 16.1385 4.3422 16.111 4.50625 16.03L6.06375 15.2513L6.615 16.905C6.6737 17.0788 6.78554 17.2297 6.9347 17.3365C7.08387 17.4433 7.26281 17.5005 7.44625 17.5H10.0713C10.2547 17.5005 10.4336 17.4433 10.5828 17.3365C10.732 17.2297 10.8438 17.0788 10.9025 16.905L11.4538 15.2513L13.0113 16.03C13.1732 16.107 13.355 16.1323 13.5318 16.1025C13.7086 16.0728 13.8721 15.9894 14 15.8638L15.8638 14C15.9932 13.8707 16.0788 13.7041 16.1086 13.5236C16.1385 13.3431 16.111 13.1578 16.03 12.9938L15.2513 11.4363L16.905 10.885C17.0774 10.8268 17.2273 10.7163 17.334 10.5689C17.4406 10.4214 17.4987 10.2444 17.5 10.0625V7.4375C17.5005 7.25406 17.4433 7.07512 17.3365 6.92595C17.2297 6.77679 17.0788 6.66495 16.905 6.60625ZM15.75 9.4325L14.7 9.7825C14.4586 9.8608 14.237 9.9907 14.0508 10.1632C13.8646 10.3357 13.7181 10.5466 13.6215 10.7814C13.525 11.0161 13.4806 11.2691 13.4916 11.5227C13.5025 11.7763 13.5685 12.0245 13.685 12.25L14.1838 13.2475L13.2213 14.21L12.25 13.685C12.0256 13.5732 11.7798 13.5109 11.5293 13.5024C11.2787 13.4938 11.0293 13.5392 10.7978 13.6355C10.5663 13.7317 10.3582 13.8766 10.1876 14.0602C10.0169 14.2439 9.8877 14.4621 9.8088 14.7L9.4588 15.75H8.0675L7.7175 14.7C7.63918 14.4586 7.50927 14.237 7.33679 14.0508C7.1643 13.8646 6.95337 13.7181 6.71862 13.6215C6.48387 13.525 6.23092 13.4806 5.97732 13.4916C5.72373 13.5025 5.47555 13.5685 5.25 13.685L4.2525 14.1838L3.29 13.2213L3.815 12.25C3.93146 12.0245 3.99746 11.7763 4.00842 11.5227C4.01938 11.2691 3.97504 11.0161 3.87847 10.7814C3.78191 10.5466 3.63543 10.3357 3.4492 10.1632C3.26298 9.9907 3.04145 9.8608 2.8 9.7825L1.75 9.4325V8.0675L2.8 7.7175C3.04145 7.63918 3.26298 7.50927 3.4492 7.33679C3.63543 7.1643 3.78191 6.95337 3.87847 6.71862C3.97504 6.48387 4.01938 6.23092 4.00842 5.97732C3.99746 5.72373 3.93146 5.47555 3.815 5.25L3.31625 4.27875L4.27875 3.31625L5.25 3.815C5.47555 3.93146 5.72373 3.99746 5.97732 4.00842C6.23092 4.01938 6.48387 3.97504 6.71862 3.87847C6.95337 3.78191 7.1643 3.63543 7.33679 3.4492C7.50927 3.26298 7.63918 3.04145 7.7175 2.8L8.0675 1.75H9.4325L9.7825 2.8C9.8608 3.04145 9.9907 3.26298 10.1632 3.4492C10.3357 3.63543 10.5466 3.78191 10.7814 3.87847C11.0161 3.97504 11.2691 4.01938 11.5227 4.00842C11.7763 3.99746 12.0245 3.93146 12.25 3.815L13.2475 3.31625L14.21 4.27875L13.685 5.25C13.5732 5.47439 13.5109 5.72018 13.5024 5.97073C13.4938 6.22128 13.5392 6.47074 13.6355 6.70222C13.7317 6.93371 13.8766 7.14181 14.0602 7.31245C14.2439 7.48308 14.4621 7.61227 14.7 7.69125L15.75 8.04125V9.4325ZM8.75 5.25C8.05777 5.25 7.38108 5.45527 6.80551 5.83986C6.22994 6.22444 5.78133 6.77107 5.51642 7.41061C5.25152 8.05015 5.18221 8.7539 5.31725 9.4328C5.4523 10.1118 5.78564 10.7354 6.27513 11.2249C6.76461 11.7144 7.38825 12.0477 8.06719 12.1828C8.7461 12.3178 9.4499 12.2485 10.0894 11.9836C10.7289 11.7187 11.2756 11.2701 11.6601 10.6945C12.0447 10.1189 12.25 9.4422 12.25 8.75C12.25 7.82174 11.8813 6.93151 11.2249 6.27513C10.5685 5.61875 9.6783 5.25 8.75 5.25ZM8.75 10.5C8.4039 10.5 8.06554 10.3974 7.77775 10.2051C7.48997 10.0128 7.26567 9.7395 7.13321 9.4197C7.00076 9.0999 6.9661 8.7481 7.03363 8.4086C7.10115 8.06913 7.26782 7.75731 7.51257 7.51257C7.75731 7.26782 8.06913 7.10115 8.4086 7.03363C8.7481 6.9661 9.0999 7.00076 9.4197 7.13321C9.7395 7.26567 10.0128 7.48997 10.2051 7.77775C10.3974 8.06554 10.5 8.4039 10.5 8.75C10.5 9.2141 10.3156 9.6592 9.9874 9.9874C9.6592 10.3156 9.2141 10.5 8.75 10.5Z" fill="#1A1930"/>
</svg>
