<svg width="18" height="15" viewBox="0 0 18 15" fill="none" xmlns="http://www.w3.org/2000/svg">
<path d="M9.8875 7.63C10.3544 7.2259 10.7289 6.72602 10.9855 6.1644C11.2422 5.60277 11.375 4.9925 11.375 4.375C11.375 3.21468 10.9141 2.10188 10.0936 1.28141C9.2731 0.46094 8.16032 0 7 0C5.83968 0 4.72688 0.46094 3.90641 1.28141C3.08594 2.10188 2.625 3.21468 2.625 4.375C2.62499 4.9925 2.75783 5.60277 3.01448 6.1644C3.27114 6.72602 3.64562 7.2259 4.1125 7.63C2.88762 8.1846 1.84841 9.0803 1.11911 10.21C0.38981 11.3396 0.00129 12.6554 0 14C0 14.2321 0.09219 14.4546 0.25628 14.6187C0.42038 14.7828 0.64294 14.875 0.875 14.875C1.10706 14.875 1.32962 14.7828 1.49372 14.6187C1.65781 14.4546 1.75 14.2321 1.75 14C1.75 12.6076 2.30312 11.2723 3.28769 10.2877C4.27226 9.3031 5.60761 8.75 7 8.75C8.3924 8.75 9.7277 9.3031 10.7123 10.2877C11.6969 11.2723 12.25 12.6076 12.25 14C12.25 14.2321 12.3422 14.4546 12.5063 14.6187C12.6704 14.7828 12.8929 14.875 13.125 14.875C13.3571 14.875 13.5796 14.7828 13.7437 14.6187C13.9078 14.4546 14 14.2321 14 14C13.9987 12.6554 13.6102 11.3396 12.8809 10.21C12.1516 9.0803 11.1124 8.1846 9.8875 7.63ZM7 7C6.48082 7 5.97331 6.84605 5.54163 6.55761C5.10995 6.26917 4.7735 5.8592 4.57482 5.37954C4.37614 4.89989 4.32415 4.37209 4.42544 3.86289C4.52673 3.35369 4.77673 2.88596 5.14384 2.51884C5.51096 2.15173 5.97869 1.90173 6.48789 1.80044C6.99709 1.69915 7.52489 1.75114 8.00454 1.94982C8.4842 2.1485 8.8942 2.48495 9.1826 2.91663C9.471 3.34831 9.625 3.85582 9.625 4.375C9.625 5.07119 9.3484 5.73887 8.8562 6.23116C8.3639 6.72344 7.69619 7 7 7ZM17.2462 4.92625C17.1649 4.84424 17.0681 4.77914 16.9615 4.73472C16.8549 4.6903 16.7405 4.66743 16.625 4.66743C16.5095 4.66743 16.3951 4.6903 16.2885 4.73472C16.1819 4.77914 16.0851 4.84424 16.0038 4.92625L14.2538 6.67625L13.7113 6.125C13.6299 6.04299 13.5331 5.97789 13.4265 5.93347C13.3199 5.88905 13.2055 5.86618 13.09 5.86618C12.9745 5.86618 12.8601 5.88905 12.7535 5.93347C12.6469 5.97789 12.5501 6.04299 12.4688 6.125C12.3058 6.28894 12.2143 6.51071 12.2143 6.74187C12.2143 6.973 12.3058 7.1948 12.4688 7.3587L13.6413 8.5313C13.8052 8.6942 14.027 8.7857 14.2581 8.7857C14.4893 8.7857 14.7111 8.6942 14.875 8.5313L17.2113 6.195C17.2996 6.11566 17.3709 6.01916 17.4207 5.9114C17.4706 5.80363 17.498 5.68684 17.5012 5.56814C17.5045 5.44945 17.4836 5.33132 17.4398 5.22097C17.3959 5.11062 17.3301 5.01034 17.2462 4.92625Z" fill="#1A1930"/>
</svg>
