<svg width="18" height="18" viewBox="0 0 18 18" fill="none" xmlns="http://www.w3.org/2000/svg">
<path d="M16.625 7.875C16.1 7.875 15.75 8.225 15.75 8.75C15.75 11.2875 14.4375 13.5625 12.25 14.7875C8.925 16.7125 4.6375 15.575 2.7125 12.25C0.7875 8.925 1.925 4.6375 5.25 2.7125C8.1375 1.05 11.6375 1.6625 13.825 3.9375H11.725C11.2 3.9375 10.85 4.2875 10.85 4.8125C10.85 5.3375 11.2 5.6875 11.725 5.6875H15.6625C16.1875 5.6875 16.5375 5.3375 16.5375 4.8125V0.875C16.5375 0.35 16.1875 0 15.6625 0C15.1375 0 14.7875 0.35 14.7875 0.875V2.45C13.125 0.875 11.025 0 8.75 0C3.9375 0 0 3.9375 0 8.75C0 13.5625 3.9375 17.5 8.75 17.5C13.5625 17.5 17.5 13.5625 17.5 8.75C17.5 8.225 17.15 7.875 16.625 7.875Z" fill="#1A1930"/>
</svg>
